<?xml version="1.0" encoding="UTF-8"?>
<svg version="1.1" xmlns="http://www.w3.org/2000/svg" width="700" height="482">
<path d="M0 0 C231 0 462 0 700 0 C700 159.06 700 318.12 700 482 C469 482 238 482 0 482 C0 322.94 0 163.88 0 0 Z " fill="#FEFEFE" transform="translate(0,0)"/>
<path d="M0 0 C15.18 0 30.36 0 46 0 C46.25 18.1875 46.25 18.1875 46.29785156 23.90307617 C46.32723273 25.40807129 46.35806058 26.91303915 46.390625 28.41796875 C46.39231689 29.57794373 46.39231689 29.57794373 46.39404297 30.76135254 C46.49570942 34.61165951 46.77779126 36.62687701 48.79199219 40.0090332 C50.99788934 42.38745042 50.99788934 42.38745042 54.9375 42.4375 C58.28215827 42.20037871 61.12410876 41.83011261 64 40 C65.25957066 35.71342107 65.21631939 31.29085849 65.31640625 26.85546875 C65.34438293 25.83096619 65.34438293 25.83096619 65.3729248 24.7857666 C65.44082722 22.25313298 65.50122713 19.72030268 65.5625 17.1875 C65.706875 11.515625 65.85125 5.84375 66 0 C81.18 0 96.36 0 112 0 C112.1875 17.625 112.1875 17.625 112.20776367 23.15478516 C112.23423085 24.61624725 112.26251275 26.07767809 112.29296875 27.5390625 C112.28898071 28.28567139 112.28499268 29.03228027 112.28088379 29.80151367 C112.38801417 33.77256729 112.84851619 36.31242089 115.3293457 39.48974609 C117.82328442 42.28954046 117.82328442 42.28954046 121.4375 42.625 C125.8123658 41.85747968 128.84676129 40.15323871 132 37 C132.16003488 34.33573315 132.25942889 31.69439572 132.31640625 29.02734375 C132.3475779 27.83087975 132.3475779 27.83087975 132.37937927 26.61024475 C132.44496158 24.05275389 132.50379967 21.4951572 132.5625 18.9375 C132.60567699 17.20767118 132.64929101 15.47785321 132.69335938 13.74804688 C132.80065172 9.4988074 132.90189426 5.2494611 133 1 C137.9255044 0.92508592 142.85066732 0.87104229 147.77661133 0.83520508 C149.44756864 0.82024416 151.11848755 0.79986796 152.78930664 0.77368164 C175.74655771 0.42324171 175.74655771 0.42324171 182.75 6.3125 C183.4925 7.199375 184.235 8.08625 185 9 C186.13732895 9.90660589 187.28391701 10.80166837 188.4375 11.6875 C194.04999088 16.4280284 197.80958798 22.76683576 199 30 C199.08805355 31.60381458 199.13069772 33.21059407 199.13422108 34.81682014 C199.13867892 35.7639919 199.14313676 36.71116366 199.14772969 37.68703759 C199.14745315 39.23560678 199.14745315 39.23560678 199.14717102 40.81546021 C199.15084771 41.9186138 199.1545244 43.02176739 199.1583125 44.15834987 C199.16934313 47.86224446 199.17319214 51.56611098 199.17700195 55.27001953 C199.18326705 57.92282782 199.18990123 60.57563313 199.19691467 63.22843933 C199.21665217 71.19384394 199.22674154 79.15924977 199.23564246 87.12467271 C199.24002954 90.87891142 199.24539524 94.63314872 199.25063133 98.38738632 C199.26764039 110.87250793 199.28213385 123.35762867 199.28938007 135.84276009 C199.29128985 139.08072028 199.29321021 142.31868046 199.29516602 145.55664062 C199.29564976 146.36138431 199.2961335 147.16612799 199.2966319 147.99525784 C199.30492964 161.02730333 199.33026366 174.05925696 199.36274669 187.09126236 C199.39584842 200.48099254 199.41383162 213.87067608 199.41702431 227.26044738 C199.41918646 234.77425644 199.42789175 242.2879315 199.45348549 249.80170059 C199.47523505 256.20153308 199.48322206 262.601199 199.47351871 269.00106426 C199.46898629 272.26328976 199.47299824 275.52510161 199.49028015 278.78729439 C199.50800797 282.33269643 199.50088738 285.87723474 199.48774719 289.42263794 C199.50420106 290.95113064 199.50420106 290.95113064 199.52098733 292.51050198 C199.45963623 299.39439642 198.45195016 305.93223977 195 312 C192.91206151 313.16571343 192.91206151 313.16571343 191 314 C190.731875 314.7425 190.46375 315.485 190.1875 316.25 C188.48235134 320.19876532 185.51718733 322.58608134 182 325 C181.34 325 180.68 325 180 325 C180 325.66 180 326.32 180 327 C172.0932074 330.4278715 165.37044352 331.57856601 156.79312134 331.50793457 C155.61274839 331.51417453 154.43237544 331.5204145 153.21623361 331.52684355 C149.9709216 331.53995154 146.72621766 331.5353518 143.48092175 331.52289867 C139.96887318 331.51379552 136.45690271 331.52784395 132.94487 331.53881836 C126.07651802 331.5565535 119.20834145 331.55278572 112.33998276 331.5411678 C106.75395765 331.53211248 101.16798149 331.53091853 95.58195114 331.53526306 C94.38669772 331.53618246 94.38669772 331.53618246 93.16729777 331.53712043 C91.54821614 331.53839942 89.92913452 331.53969627 88.31005292 331.5410108 C73.14675974 331.55240232 57.98356348 331.53932613 42.8202862 331.51780933 C29.83033757 331.49994653 16.84053198 331.50303846 3.85058594 331.52148438 C-11.25753304 331.54292828 -26.36556714 331.55129658 -41.47369921 331.53903532 C-43.08723933 331.53776122 -44.70077946 331.53650373 -46.31431961 331.53526306 C-47.10807336 331.53464596 -47.9018271 331.53402886 -48.71963399 331.53339306 C-54.29314532 331.52995018 -59.8666025 331.53574563 -65.44010544 331.54518127 C-72.24087107 331.55644216 -79.04145222 331.55327613 -85.84219693 331.5320583 C-89.30719296 331.5216014 -92.7718823 331.51733318 -96.23687553 331.53065491 C-100.00460388 331.54164798 -103.77147946 331.52779962 -107.53915405 331.50793457 C-108.61826785 331.51685746 -109.69738166 331.52578034 -110.80919588 331.53497362 C-123.40232861 331.40691877 -133.93437155 328.00747513 -142.8984375 319.1171875 C-150.84236588 310.56992279 -153.14438901 302.84087481 -153.15821838 291.28701782 C-153.16315636 290.40935867 -153.16809434 289.53169951 -153.17318195 288.62744462 C-153.18854365 285.6847371 -153.19691547 282.74205141 -153.20532227 279.79931641 C-153.21490506 277.687671 -153.22491538 275.5760275 -153.23532104 273.46438599 C-153.26241251 267.71378811 -153.28341977 261.96318207 -153.30332303 256.21255541 C-153.32528387 250.15132239 -153.35265125 244.09011368 -153.37937927 238.02890015 C-153.42370625 227.80459696 -153.4644406 217.5802847 -153.50268555 207.35595703 C-153.55598792 193.10855624 -153.61588475 178.86118906 -153.67708123 164.61382031 C-153.71980686 154.6056473 -153.76088094 144.59746739 -153.8016727 134.58928633 C-153.81140633 132.20256263 -153.82118213 129.81583911 -153.83100247 127.42911577 C-153.84052725 125.10929963 -153.84997395 122.78948316 -153.85933989 120.46966636 C-153.86853453 118.19459011 -153.87790845 115.91951457 -153.88746578 113.64443982 C-153.90979132 108.14297522 -153.92673357 102.64159442 -153.93186283 97.14008522 C-153.94391671 87.4401495 -153.98616863 77.7459775 -154.19030315 68.04789937 C-154.27765052 63.742993 -154.33854726 59.43790058 -154.39663684 55.13251185 C-154.4309018 53.12356818 -154.47774998 51.11479021 -154.53863442 49.10647702 C-154.91801725 36.47645877 -153.97220403 27.76194562 -147 17 C-146.44418715 16.09451605 -145.88837431 15.1890321 -145.31571865 14.25610924 C-140.68293883 7.00135666 -132.98479367 3.54085856 -124.81616211 1.43774414 C-121.15572145 0.86876537 -117.54878626 0.87657613 -113.85546875 0.90234375 C-113.08568192 0.9037587 -112.31589508 0.90517365 -111.52278137 0.90663147 C-109.07764712 0.91220394 -106.63260632 0.92475129 -104.1875 0.9375 C-102.52408987 0.94251856 -100.8606783 0.94708085 -99.19726562 0.95117188 C-95.13147472 0.96216434 -91.06575317 0.9794099 -87 1 C-86.98541748 2.03406982 -86.97083496 3.06813965 -86.95581055 4.13354492 C-86.89769118 7.98236082 -86.82045977 11.83059999 -86.73754883 15.67895508 C-86.70436345 17.34227108 -86.67631166 19.00569796 -86.65356445 20.66918945 C-86.61990001 23.06509499 -86.5675806 25.45999035 -86.51171875 27.85546875 C-86.50532883 28.5952446 -86.4989389 29.33502045 -86.49235535 30.09721375 C-86.36670029 34.54308862 -85.7451024 37.46144732 -83 41 C-80.47524538 42.26237731 -78.68799534 42.09856404 -75.875 42.0625 C-74.96492188 42.05347656 -74.05484375 42.04445312 -73.1171875 42.03515625 C-72.41851562 42.02355469 -71.71984375 42.01195312 -71 42 C-71 41.34 -71 40.68 -71 40 C-70.34 40 -69.68 40 -69 40 C-67.19953928 35.35670656 -66.66811152 31.12750231 -66.5859375 26.1953125 C-66.56829346 25.55263428 -66.55064941 24.90995605 -66.5324707 24.24780273 C-66.46995948 21.87377786 -66.42339069 19.49935467 -66.375 17.125 C-66.25125 11.80375 -66.1275 6.4825 -66 1 C-51.15 1 -36.3 1 -21 1 C-20.6875 17.625 -20.6875 17.625 -20.61206055 22.83837891 C-20.57974394 24.21780039 -20.54636646 25.5971976 -20.51171875 26.9765625 C-20.50547485 27.67998779 -20.49923096 28.38341309 -20.49279785 29.1081543 C-20.3580894 33.76661754 -19.46368074 37.03923203 -17 41 C-13.23265786 42.88367107 -9.15883646 42.30902306 -5.1875 41.25 C-2.4625289 39.69287366 -2.07270177 38.94183013 -1 36 C-0.76388425 33.21650992 -0.62775949 30.52072779 -0.5859375 27.734375 C-0.55947144 26.67887451 -0.55947144 26.67887451 -0.5324707 25.60205078 C-0.46962145 22.98492878 -0.42328449 20.36743123 -0.375 17.75 C-0.25125 11.8925 -0.1275 6.035 0 0 Z " fill="#E6EEED" transform="translate(327,78)"/>
<path d="M0 0 C58.08 0 116.16 0 176 0 C176.16121214 55.47936566 176.16121214 55.47936566 176.1953125 78.73242188 C176.20316664 84.04549201 176.21122517 89.35856172 176.21972656 94.67163086 C176.22078156 95.33749212 176.22183655 96.00335339 176.22292352 96.68939227 C176.23921857 106.75773154 176.2672868 116.82599492 176.30175781 126.89428711 C176.34166262 138.58641791 176.36744166 150.27848055 176.37635398 161.97067755 C176.38156249 168.15996374 176.39377944 174.34905496 176.42292023 180.53827858 C176.45014666 186.36835594 176.45843028 192.19815871 176.45243073 198.02829361 C176.45352772 200.1635519 176.46143821 202.29881974 176.4768219 204.4340229 C176.63265434 227.18634281 176.63265434 227.18634281 172 234 C170.68793059 234.70759882 169.35579693 235.38029289 168 236 C167.731875 236.7425 167.46375 237.485 167.1875 238.25 C165.48235134 242.19876532 162.51718733 244.58608134 159 247 C158.34 247 157.68 247 157 247 C157 247.66 157 248.32 157 249 C147.99053318 251.75208876 139.71268815 252.41769185 130.32714844 252.34057617 C128.89682534 252.33972777 127.46650094 252.34020919 126.03617859 252.34190369 C122.19185296 252.34275676 118.34781396 252.32524402 114.50355434 252.30418181 C110.47172475 252.28529887 106.43988701 252.28365549 102.40802002 252.28010559 C94.79038241 252.27081899 87.17287553 252.24625157 79.55529523 252.21605712 C70.8756359 252.18240708 62.19597 252.16600057 53.51626158 252.15097082 C35.67741878 252.11969855 17.83875494 252.06472939 0 252 C0 234.18 0 216.36 0 198 C-8.58 198 -17.16 198 -26 198 C-29.52617164 196.82460945 -30.46527478 195.43950725 -32.18389893 192.21661377 C-33.78995887 187.85439113 -33.52566591 183.3676122 -33.4609375 178.7734375 C-33.45956284 177.1746727 -33.45956284 177.1746727 -33.4581604 175.54360962 C-33.45213949 173.29953535 -33.43643922 171.05546855 -33.41162109 168.81152344 C-33.37504535 165.37925589 -33.37060256 161.94806741 -33.37109375 158.515625 C-33.36126419 156.33071985 -33.34960789 154.14582199 -33.3359375 151.9609375 C-33.33371185 150.93688812 -33.33148621 149.91283875 -33.32919312 148.85775757 C-33.31643341 147.89971222 -33.30367371 146.94166687 -33.29052734 145.95458984 C-33.28290375 145.1163266 -33.27528015 144.27806335 -33.26742554 143.41439819 C-32.88267175 139.94072527 -31.83677178 137.07584943 -29.6875 134.3125 C-25.9818417 131.43032132 -22.30558707 130.75081185 -17.69921875 130.8046875 C-16.81838623 130.80968262 -15.93755371 130.81467773 -15.0300293 130.81982422 C-13.92699463 130.83803223 -12.82395996 130.85624023 -11.6875 130.875 C-8.160625 130.91625 -4.63375 130.9575 -1 131 C-1 121.1 -1 111.2 -1 101 C-2.98 101.99 -2.98 101.99 -5 103 C-8.25224179 103.49946272 -10.9032377 103.09636549 -14 102 C-17.7469137 99.23459563 -20.8356588 95.96626483 -24 92.5625 C-24.85722656 91.67755859 -25.71445312 90.79261719 -26.59765625 89.88085938 C-34.4637333 81.69689807 -34.4637333 81.69689807 -34.33203125 74.26171875 C-34 72 -34 72 -32.0625 69 C-28.09373342 66.40815244 -24.72173616 65.67405926 -20 66 C-17.4375 67.3125 -17.4375 67.3125 -16 69 C-16 69.66 -16 70.32 -16 71 C-15.34 71 -14.68 71 -14 71 C-14 71.66 -14 72.32 -14 73 C-11.91836944 74.26384713 -10.52513785 75.01693993 -8.0625 74.9375 C-5.19412293 73.77932867 -5.19412293 73.77932867 -1 69 C-0.67 46.23 -0.34 23.46 0 0 Z " fill="#C4E0E5" transform="translate(350,156)"/>
<path d="M0 0 C15.18 0 30.36 0 46 0 C46.25 18.1875 46.25 18.1875 46.29785156 23.90307617 C46.32723273 25.40807129 46.35806058 26.91303915 46.390625 28.41796875 C46.39231689 29.57794373 46.39231689 29.57794373 46.39404297 30.76135254 C46.49570942 34.61165951 46.77779126 36.62687701 48.79199219 40.0090332 C50.99788934 42.38745042 50.99788934 42.38745042 54.9375 42.4375 C58.28215827 42.20037871 61.12410876 41.83011261 64 40 C65.25957066 35.71342107 65.21631939 31.29085849 65.31640625 26.85546875 C65.34438293 25.83096619 65.34438293 25.83096619 65.3729248 24.7857666 C65.44082722 22.25313298 65.50122713 19.72030268 65.5625 17.1875 C65.706875 11.515625 65.85125 5.84375 66 0 C81.18 0 96.36 0 112 0 C112.1875 17.625 112.1875 17.625 112.20776367 23.15478516 C112.23423085 24.61624725 112.26251275 26.07767809 112.29296875 27.5390625 C112.28898071 28.28567139 112.28499268 29.03228027 112.28088379 29.80151367 C112.38801417 33.77256729 112.84851619 36.31242089 115.3293457 39.48974609 C117.82328442 42.28954046 117.82328442 42.28954046 121.4375 42.625 C125.8123658 41.85747968 128.84676129 40.15323871 132 37 C132.16003488 34.33573315 132.25942889 31.69439572 132.31640625 29.02734375 C132.3475779 27.83087975 132.3475779 27.83087975 132.37937927 26.61024475 C132.44496158 24.05275389 132.50379967 21.4951572 132.5625 18.9375 C132.60567699 17.20767118 132.64929101 15.47785321 132.69335938 13.74804688 C132.80065172 9.4988074 132.90189426 5.2494611 133 1 C137.9255044 0.92508592 142.85066732 0.87104229 147.77661133 0.83520508 C149.44756864 0.82024416 151.11848755 0.79986796 152.78930664 0.77368164 C175.74655771 0.42324171 175.74655771 0.42324171 182.75 6.3125 C183.4925 7.199375 184.235 8.08625 185 9 C186.13732895 9.90660589 187.28391701 10.80166837 188.4375 11.6875 C194.17989428 16.53774987 197.54110058 22.70550289 199 30 C199 45.51 199 61.02 199 77 C82.84 77 -33.32 77 -153 77 C-153 23.72649573 -153 23.72649573 -142.296875 10.1875 C-134.51411443 2.77534707 -124.18374499 0.83028519 -113.85546875 0.90234375 C-113.08568192 0.9037587 -112.31589508 0.90517365 -111.52278137 0.90663147 C-109.07764712 0.91220394 -106.63260632 0.92475129 -104.1875 0.9375 C-102.52408987 0.94251856 -100.8606783 0.94708085 -99.19726562 0.95117188 C-95.13147472 0.96216434 -91.06575317 0.9794099 -87 1 C-86.98541748 2.03406982 -86.97083496 3.06813965 -86.95581055 4.13354492 C-86.89769118 7.98236082 -86.82045977 11.83059999 -86.73754883 15.67895508 C-86.70436345 17.34227108 -86.67631166 19.00569796 -86.65356445 20.66918945 C-86.61990001 23.06509499 -86.5675806 25.45999035 -86.51171875 27.85546875 C-86.50532883 28.5952446 -86.4989389 29.33502045 -86.49235535 30.09721375 C-86.36670029 34.54308862 -85.7451024 37.46144732 -83 41 C-80.47524538 42.26237731 -78.68799534 42.09856404 -75.875 42.0625 C-74.96492188 42.05347656 -74.05484375 42.04445312 -73.1171875 42.03515625 C-72.41851562 42.02355469 -71.71984375 42.01195312 -71 42 C-71 41.34 -71 40.68 -71 40 C-70.34 40 -69.68 40 -69 40 C-67.19953928 35.35670656 -66.66811152 31.12750231 -66.5859375 26.1953125 C-66.56829346 25.55263428 -66.55064941 24.90995605 -66.5324707 24.24780273 C-66.46995948 21.87377786 -66.42339069 19.49935467 -66.375 17.125 C-66.25125 11.80375 -66.1275 6.4825 -66 1 C-51.15 1 -36.3 1 -21 1 C-20.6875 17.625 -20.6875 17.625 -20.61206055 22.83837891 C-20.57974394 24.21780039 -20.54636646 25.5971976 -20.51171875 26.9765625 C-20.50547485 27.67998779 -20.49923096 28.38341309 -20.49279785 29.1081543 C-20.3580894 33.76661754 -19.46368074 37.03923203 -17 41 C-13.23265786 42.88367107 -9.15883646 42.30902306 -5.1875 41.25 C-2.4625289 39.69287366 -2.07270177 38.94183013 -1 36 C-0.76388425 33.21650992 -0.62775949 30.52072779 -0.5859375 27.734375 C-0.55947144 26.67887451 -0.55947144 26.67887451 -0.5324707 25.60205078 C-0.46962145 22.98492878 -0.42328449 20.36743123 -0.375 17.75 C-0.25125 11.8925 -0.1275 6.035 0 0 Z " fill="#FE5B5D" transform="translate(327,78)"/>
<path d="M0 0 C15.18 0 30.36 0 46 0 C46.1875 17.625 46.1875 17.625 46.20776367 23.15478516 C46.23423085 24.61624725 46.26251275 26.07767809 46.29296875 27.5390625 C46.28898071 28.28567139 46.28499268 29.03228027 46.28088379 29.80151367 C46.38801417 33.77256729 46.84851619 36.31242089 49.3293457 39.48974609 C51.82328442 42.28954046 51.82328442 42.28954046 55.4375 42.625 C59.8123658 41.85747968 62.84676129 40.15323871 66 37 C66.16003488 34.33573315 66.25942889 31.69439572 66.31640625 29.02734375 C66.3475779 27.83087975 66.3475779 27.83087975 66.37937927 26.61024475 C66.44496158 24.05275389 66.50379967 21.4951572 66.5625 18.9375 C66.60567699 17.20767118 66.64929101 15.47785321 66.69335938 13.74804688 C66.80065172 9.4988074 66.90189426 5.2494611 67 1 C71.9255044 0.92508592 76.85066732 0.87104229 81.77661133 0.83520508 C83.44756864 0.82024416 85.11848755 0.79986796 86.78930664 0.77368164 C109.74655771 0.42324171 109.74655771 0.42324171 116.75 6.3125 C117.4925 7.199375 118.235 8.08625 119 9 C120.17645808 9.97185668 121.36479898 10.92944656 122.5625 11.875 C129.31663038 17.6600595 130.22783605 23.13918026 132 32 C132 46.52 132 61.04 132 76 C74.25 76 16.5 76 -43 76 C-43 51.25 -43 26.5 -43 1 C-35.74 1 -28.48 1 -21 1 C-20.98582031 3.45695312 -20.97164063 5.91390625 -20.95703125 8.4453125 C-20.92637216 10.83835358 -20.88729383 13.23112037 -20.84741211 15.62402344 C-20.82428871 17.28049949 -20.80984968 18.93712138 -20.80444336 20.59375 C-20.79511157 22.98268921 -20.75403536 25.36935279 -20.70703125 27.7578125 C-20.7109639 28.49242706 -20.71489655 29.22704163 -20.71894836 29.98391724 C-20.55761972 35.73525658 -18.96607996 38.12420296 -15 42 C-11.36785518 43.15568244 -7.70728056 42.16553375 -4.0625 41.3125 C-1.811061 40.19759057 -1.811061 40.19759057 -1.39086914 37.92700195 C-0.89823792 34.23796027 -0.76744072 30.5711809 -0.68359375 26.85546875 C-0.66494263 26.17246704 -0.6462915 25.48946533 -0.6270752 24.7857666 C-0.55917278 22.25313298 -0.49877287 19.72030268 -0.4375 17.1875 C-0.293125 11.515625 -0.14875 5.84375 0 0 Z " fill="#FE0159" transform="translate(393,78)"/>
<path d="M0 0 C1.08154861 -0.02236725 2.16309723 -0.0447345 3.27742004 -0.06777954 C5.03054756 -0.07749283 5.03054756 -0.07749283 6.8190918 -0.08740234 C8.62255318 -0.10593765 8.62255318 -0.10593765 10.46244812 -0.12484741 C13.0086072 -0.14443381 15.55484225 -0.15564927 18.10107422 -0.15917969 C21.99339578 -0.17324978 25.88249553 -0.2405512 29.77416992 -0.31005859 C32.24746292 -0.32245856 34.72077434 -0.33167738 37.1940918 -0.33740234 C38.93811028 -0.3774791 38.93811028 -0.3774791 40.71736145 -0.41836548 C49.74704963 -0.34259957 49.74704963 -0.34259957 53.44238281 3.30151367 C56.70099042 8.06656226 56.53374341 13.0468293 56.43237305 18.64306641 C56.43386856 20.2382737 56.43386856 20.2382737 56.43539429 21.8657074 C56.4307292 24.10561631 56.41136842 26.34553729 56.37817383 28.58520508 C56.3309075 32.00714094 56.33707086 35.42596417 56.3503418 38.84814453 C56.33918917 41.02980367 56.32496998 43.21144973 56.30737305 45.39306641 C56.31010727 46.92139854 56.31010727 46.92139854 56.31289673 48.48060608 C56.19676723 54.31612857 55.66141924 57.85864416 51.70581055 62.45166016 C51.27096344 62.99079544 50.83611633 63.52993073 50.38809204 64.08540344 C48.08062098 65.95940482 46.58956268 65.81994955 43.6394043 65.80810547 C42.09265015 65.81260712 42.09265015 65.81260712 40.51464844 65.81719971 C39.40210693 65.80485291 38.28956543 65.7925061 37.14331055 65.77978516 C35.42905884 65.7769754 35.42905884 65.7769754 33.68017578 65.77410889 C31.26258428 65.76738281 28.84500377 65.75345742 26.42749023 65.73291016 C22.72068197 65.70178503 19.01429897 65.69194261 15.30737305 65.68603516 C12.96101368 65.67686406 10.61465865 65.66648795 8.26831055 65.65478516 C7.15576904 65.65053528 6.04322754 65.6462854 4.89697266 65.64190674 C3.86580322 65.63229919 2.83463379 65.62269165 1.7722168 65.61279297 C0.86415283 65.60596497 -0.04391113 65.59913696 -0.97949219 65.59210205 C-3.29418945 65.45166016 -3.29418945 65.45166016 -6.29418945 64.45166016 C-10.75919584 58.53434 -10.85721093 53.47062755 -10.75512695 46.22509766 C-10.75375229 44.62633286 -10.75375229 44.62633286 -10.75234985 42.99526978 C-10.74632894 40.7511955 -10.73062867 38.5071287 -10.70581055 36.26318359 C-10.66923481 32.83091605 -10.66479201 29.39972757 -10.6652832 25.96728516 C-10.65545364 23.78238001 -10.64379735 21.59748215 -10.63012695 19.41259766 C-10.62790131 18.38854828 -10.62567566 17.3644989 -10.62338257 16.30941772 C-10.61062286 15.35137238 -10.59786316 14.39332703 -10.5847168 13.40625 C-10.5770932 12.56798676 -10.5694696 11.72972351 -10.56161499 10.86605835 C-10.16688051 7.30227672 -9.10445583 4.56882289 -7.00007629 1.66738892 C-4.62175396 -0.02756223 -2.90676472 0.04411105 0 0 Z " fill="#2D617A" transform="translate(327.294189453125,288.54833984375)"/>
<path d="M0 0 C1.4070369 -0.02893593 1.4070369 -0.02893593 2.84249878 -0.05845642 C7.10751966 -0.11659456 11.3723836 -0.16542619 15.63769531 -0.19628906 C17.88394512 -0.21790324 20.13010995 -0.25204603 22.37597656 -0.29882812 C25.62749537 -0.36586237 28.87728207 -0.39328916 32.12939453 -0.41235352 C33.12752167 -0.44018417 34.1256488 -0.46801483 35.15402222 -0.49668884 C39.78628133 -0.48307894 43.39775393 -0.18511879 47.2824707 2.48632812 C50.93465063 6.18341637 50.93277988 9.95946493 50.93028259 14.96920776 C50.89415359 16.09755035 50.8580246 17.22589294 50.82080078 18.38842773 C50.81089615 19.55632843 50.80099152 20.72422913 50.79078674 21.92752075 C50.75168861 25.64755286 50.6638644 29.36460424 50.57470703 33.08374023 C50.53958775 35.60973921 50.50764984 38.13578456 50.47900391 40.66186523 C50.40194121 46.8451691 50.28489411 53.02674172 50.13720703 59.20874023 C49.47720703 59.20874023 48.81720703 59.20874023 48.13720703 59.20874023 C47.82783203 60.01311523 47.51845703 60.81749023 47.19970703 61.64624023 C46.13720703 64.20874023 46.13720703 64.20874023 45.13720703 65.20874023 C43.47106079 65.32314256 41.80010556 65.36834611 40.13012695 65.38574219 C39.06199265 65.39857742 37.99385834 65.41141266 36.89335632 65.42463684 C35.72988174 65.43202377 34.56640717 65.43941071 33.36767578 65.44702148 C32.179991 65.45509323 30.99230621 65.46316498 29.76863098 65.47148132 C27.24917063 65.48534229 24.72969133 65.49605539 22.21020508 65.50390625 C18.35152692 65.52112059 14.49370479 65.5649906 10.63525391 65.60913086 C8.19190086 65.61925695 5.7485405 65.62777331 3.30517578 65.63452148 C1.56907295 65.66078362 1.56907295 65.66078362 -0.20210266 65.68757629 C-1.27969345 65.68465073 -2.35728424 65.68172516 -3.4675293 65.67871094 C-4.41493484 65.68457718 -5.36234039 65.69044342 -6.3384552 65.69648743 C-9.63173918 65.06016608 -10.83878147 63.83568513 -12.86279297 61.20874023 C-12.86279297 60.21874023 -12.86279297 59.22874023 -12.86279297 58.20874023 C-13.52279297 58.20874023 -14.18279297 58.20874023 -14.86279297 58.20874023 C-14.98960692 50.8948824 -15.07715055 43.58130821 -15.13745117 36.26660156 C-15.16258968 33.77853806 -15.19670544 31.29054835 -15.23999023 28.80273438 C-15.30066727 25.22564482 -15.32901031 21.64953189 -15.35107422 18.07202148 C-15.37688065 16.96039139 -15.40268707 15.84876129 -15.42927551 14.70344543 C-15.43206204 7.02464035 -15.43206204 7.02464035 -12.64477539 3.02978516 C-8.58496433 0.37229233 -4.77380947 0.09237306 0 0 Z " fill="#2B6179" transform="translate(237.86279296875,199.791259765625)"/>
<path d="M0 0 C1.0447348 -0.0127597 2.0894696 -0.02551941 3.16586304 -0.03866577 C4.29400421 -0.04089142 5.42214539 -0.04311707 6.58447266 -0.04541016 C8.32490341 -0.05539536 8.32490341 -0.05539536 10.10049438 -0.06558228 C12.5567262 -0.07571451 15.01298558 -0.08039912 17.46923828 -0.08007812 C21.22686174 -0.08444745 24.98330739 -0.12075265 28.74072266 -0.15869141 C31.1261353 -0.16456015 33.51155353 -0.16852916 35.89697266 -0.17041016 C37.02106537 -0.18478119 38.14515808 -0.19915222 39.30331421 -0.21395874 C47.10571842 -0.16827993 47.10571842 -0.16827993 51.05957031 2.19433594 C53.77491825 5.33215254 54.00131082 7.05279172 54.01879883 11.11987305 C54.02517868 12.12464188 54.03155853 13.12941071 54.03813171 14.16462708 C54.03924454 15.25418198 54.04035736 16.34373688 54.04150391 17.46630859 C54.04649651 19.14227364 54.04649651 19.14227364 54.05158997 20.85209656 C54.0566605 23.22015978 54.05899825 25.58823018 54.05883789 27.95629883 C54.06101983 31.57759426 54.07916192 35.19858292 54.09814453 38.81982422 C54.10107933 41.1186513 54.10306355 43.41747983 54.10400391 45.71630859 C54.11118942 46.7997908 54.11837494 47.88327301 54.1257782 48.99958801 C54.12270157 50.01381332 54.11962494 51.02803864 54.11645508 52.07299805 C54.1178801 52.9618721 54.11930511 53.85074615 54.12077332 54.76655579 C53.83938974 57.6391065 53.22649637 59.74003426 51.87353516 62.29052734 C48.74853516 63.10302734 48.74853516 63.10302734 45.87353516 63.29052734 C45.87353516 63.95052734 45.87353516 64.61052734 45.87353516 65.29052734 C38.84444517 65.39199888 31.81554426 65.46202299 24.78588867 65.51025391 C22.39486635 65.53036152 20.00389315 65.55765164 17.61303711 65.59228516 C14.17500685 65.64083885 10.73762712 65.66350509 7.29931641 65.68115234 C5.6974926 65.71212006 5.6974926 65.71212006 4.06330872 65.74371338 C-3.3336166 65.74594669 -3.3336166 65.74594669 -7.21557617 63.51611328 C-10.35944022 59.85449776 -11.37541676 57.14806157 -11.40112305 52.32592773 C-11.41065506 51.34133072 -11.42018707 50.3567337 -11.43000793 49.34230042 C-11.42909653 48.28494186 -11.42818512 47.22758331 -11.42724609 46.13818359 C-11.43153122 45.04589951 -11.43581635 43.95361542 -11.44023132 42.82823181 C-11.44597197 40.51920261 -11.44647684 38.21015531 -11.44213867 35.90112305 C-11.43897985 32.3698031 -11.46243812 28.83932178 -11.48779297 25.30810547 C-11.4900661 23.0639659 -11.49076939 20.81982408 -11.48974609 18.57568359 C-11.49895584 17.52034927 -11.50816559 16.46501495 -11.51765442 15.37770081 C-11.45936131 6.13369569 -11.45936131 6.13369569 -8.12646484 2.29052734 C-4.8373126 0.09775918 -3.8227516 0.03168431 0 0 Z " fill="#214A5C" transform="translate(422.12646484375,288.70947265625)"/>
<path d="M0 0 C0.98144485 -0.01606293 1.96288971 -0.03212585 2.97407532 -0.04867554 C7.4573185 -0.09321241 11.94041544 -0.134182 16.42382812 -0.15722656 C18.78753501 -0.17379119 21.15119171 -0.20108755 23.51464844 -0.23925781 C26.92563823 -0.29404709 30.3354555 -0.3159037 33.74682617 -0.33056641 C34.80013626 -0.35323578 35.85344635 -0.37590515 36.93867493 -0.39926147 C45.1310562 -0.3756985 45.1310562 -0.3756985 48.81591797 2.60058594 C51.92403693 6.03079143 52.29123676 7.51824926 52.32592773 12.0222168 C52.33553528 13.02698563 52.34514282 14.03175446 52.3550415 15.06697083 C52.35929138 16.15652573 52.36354126 17.24608063 52.36791992 18.36865234 C52.37362 19.48596237 52.37932007 20.6032724 52.38519287 21.75444031 C52.39465234 24.12249807 52.4011806 26.49056905 52.4050293 28.85864258 C52.41472712 32.48005195 52.44573911 36.10089208 52.47729492 39.72216797 C52.48382559 42.02099272 52.48907581 44.31982153 52.49291992 46.61865234 C52.50526672 47.70213455 52.51761353 48.78561676 52.53033447 49.90193176 C52.50148375 59.65207146 52.50148375 59.65207146 49.16479492 63.19287109 C45.73146898 64.83715811 42.96917033 65.44684311 39.1784668 65.4675293 C37.7317157 65.48182732 37.7317157 65.48182732 36.2557373 65.49641418 C35.22541382 65.49550278 34.19509033 65.49459137 33.13354492 65.49365234 C31.53053528 65.50008003 31.53053528 65.50008003 29.8951416 65.50663757 C27.63916735 65.51237202 25.38317462 65.51288767 23.12719727 65.50854492 C19.67716977 65.50538244 16.22799788 65.5288647 12.77807617 65.55419922 C10.58406684 65.55647205 8.3900552 65.55717579 6.19604492 65.55615234 C5.16572144 65.56536209 4.13539795 65.57457184 3.07385254 65.58406067 C-5.98008552 65.52558992 -5.98008552 65.52558992 -9.83520508 62.19287109 C-12.59078938 59.11398538 -13.21667754 57.15400464 -13.25512695 53.04467773 C-13.27103882 52.02003922 -13.28695068 50.9954007 -13.30334473 49.93971252 C-13.30354614 48.83860641 -13.30374756 47.73750031 -13.30395508 46.60302734 C-13.3115686 45.46635117 -13.31918213 44.32967499 -13.32702637 43.15855408 C-13.33782885 40.75538326 -13.34067989 38.35216549 -13.33618164 35.94897461 C-13.33520956 32.27231552 -13.37682835 28.59774435 -13.42114258 24.92138672 C-13.4263497 22.58610461 -13.42903777 20.25081525 -13.42895508 17.91552734 C-13.44535034 16.81644547 -13.46174561 15.71736359 -13.4786377 14.5849762 C-13.40967472 6.9679634 -13.40967472 6.9679634 -10.4855957 3.02270508 C-6.88963725 0.54004953 -4.26392444 0.0635052 0 0 Z " fill="#214A5C" transform="translate(423.835205078125,199.80712890625)"/>
<path d="M0 0 C1.04481033 -0.00960754 2.08962067 -0.01921509 3.16609192 -0.02911377 C4.29939438 -0.03336365 5.43269684 -0.03761353 6.6003418 -0.04199219 C8.34289497 -0.0505423 8.34289497 -0.0505423 10.12065125 -0.05926514 C12.58286627 -0.06872515 15.04509402 -0.07525308 17.50732422 -0.07910156 C21.27358127 -0.08880029 25.0392912 -0.11981227 28.80541992 -0.15136719 C31.19539063 -0.15789774 33.58536526 -0.163148 35.9753418 -0.16699219 C37.10257156 -0.17933899 38.22980133 -0.19168579 39.39118958 -0.20440674 C40.9725898 -0.19990509 40.9725898 -0.19990509 42.5859375 -0.1953125 C43.97254326 -0.20078094 43.97254326 -0.20078094 45.38716125 -0.20635986 C48.53517949 0.23860877 50.42166815 1.31315934 52.98706055 3.16113281 C54.23505226 5.65711624 54.13424164 7.38102504 54.1640625 10.17407227 C54.18331535 11.74128777 54.18331535 11.74128777 54.20295715 13.34016418 C54.21034409 14.47346664 54.21773102 15.6067691 54.2253418 16.77441406 C54.23341354 17.93611618 54.24148529 19.0978183 54.24980164 20.29472351 C54.26365081 22.75693261 54.27436922 25.21916097 54.28222656 27.68139648 C54.29944246 31.44779822 54.34332312 35.21332313 54.38745117 38.97949219 C54.39757752 41.36945968 54.4060938 43.75943464 54.4128418 46.14941406 C54.43034988 47.27664383 54.44785797 48.4038736 54.46589661 49.56526184 C54.44424258 57.36857471 54.44424258 57.36857471 52.14794922 61.34936523 C48.86819863 64.0992273 46.18955853 64.29026991 42.06005859 64.32226562 C40.55786018 64.33667694 40.55786018 64.33667694 39.02531433 64.35137939 C37.94405777 64.35562927 36.86280121 64.35987915 35.7487793 64.36425781 C34.07849419 64.37280792 34.07849419 64.37280792 32.37446594 64.38153076 C30.01658072 64.39098191 27.65868227 64.39751519 25.30078125 64.40136719 C21.69922746 64.41106638 18.09824584 64.44208681 14.49682617 64.47363281 C12.20581393 64.48016359 9.91479762 64.48541377 7.6237793 64.48925781 C6.01100349 64.50777802 6.01100349 64.50777802 4.36564636 64.52667236 C-1.10825639 64.51042213 -5.38646475 64.46375375 -10.01293945 61.16113281 C-11.00929923 58.17205348 -11.13960881 56.19961303 -11.14233398 53.07885742 C-11.14548615 52.0444603 -11.14863831 51.01006317 -11.15188599 49.94432068 C-11.14986176 48.82864212 -11.14783752 47.71296356 -11.14575195 46.56347656 C-11.14670868 45.41827042 -11.14766541 44.27306427 -11.14865112 43.09315491 C-11.14933192 40.67139633 -11.1474846 38.24963593 -11.14331055 35.82788086 C-11.13795604 32.11014737 -11.14326147 28.39253443 -11.1496582 24.67480469 C-11.1489975 22.32519504 -11.1477165 19.97558548 -11.14575195 17.62597656 C-11.14777618 16.50827377 -11.14980042 15.39057098 -11.15188599 14.23899841 C-11.14873383 13.20775345 -11.14558167 12.17650848 -11.14233398 11.11401367 C-11.14153839 10.2037291 -11.1407428 9.29344452 -11.1399231 8.35557556 C-11.01293945 6.16113281 -11.01293945 6.16113281 -10.01293945 4.16113281 C-9.35293945 4.16113281 -8.69293945 4.16113281 -8.01293945 4.16113281 C-7.68293945 3.17113281 -7.35293945 2.18113281 -7.01293945 1.16113281 C-4.51380354 -0.08843514 -2.7965377 0.02070978 0 0 Z " fill="#285E77" transform="translate(234.012939453125,288.8388671875)"/>
<path d="M0 0 C3.34734858 1.95996068 3.88870006 3.34384644 6 7 C6 11.95 6 16.9 6 22 C21.18 22 36.36 22 52 22 C52 17.38 52 12.76 52 8 C55.7804878 1.69918699 55.7804878 1.69918699 59 0 C62.7441664 -0.26274852 65.43528609 -0.18823797 69 1 C69.495 2.485 69.495 2.485 70 4 C70.50729141 4.45525558 71.01458282 4.91051117 71.5372467 5.37956238 C73.53376918 7.59130932 73.38596542 8.9768821 73.40405273 11.92700195 C73.41673691 12.92846756 73.42942108 13.92993317 73.44248962 14.96174622 C73.43955399 16.04300278 73.43661835 17.12425934 73.43359375 18.23828125 C73.4388356 19.35180466 73.44407745 20.46532806 73.44947815 21.6125946 C73.45590617 23.97048102 73.45455133 26.32839947 73.44604492 28.6862793 C73.4375573 32.28818258 73.46625154 35.88848876 73.49804688 39.49023438 C73.49965954 41.78124952 73.49908011 44.07226748 73.49609375 46.36328125 C73.50732773 47.43846512 73.51856171 48.51364899 73.53013611 49.62141418 C73.47370718 55.70238138 73.11922716 59.39587378 69 64 C67.1875 64.875 67.1875 64.875 65 65 C63.2984375 65.185625 63.2984375 65.185625 61.5625 65.375 C58 65 58 65 55.125 62.6875 C51.68741772 58.33996947 51.86459351 54.573292 51.90234375 49.26953125 C51.90335083 48.60417358 51.90435791 47.93881592 51.90539551 47.2532959 C51.91061894 44.77301301 51.92458022 42.29275474 51.9375 39.8125 C51.958125 34.264375 51.97875 28.71625 52 23 C37.15 23 22.3 23 7 23 C7.11838842 33.5903223 7.11838842 33.5903223 7.27026367 44.18017578 C7.27903444 45.51854735 7.28667698 46.85692698 7.29296875 48.1953125 C7.30831665 48.877146 7.32366455 49.55897949 7.33947754 50.26147461 C7.34199736 54.91305928 6.35474817 58.0075204 4 62 C3.34 62 2.68 62 2 62 C2 62.66 2 63.32 2 64 C-1.20417721 65.6020886 -4.52339432 65.49285215 -8 65 C-11.44312714 62.8755173 -12.71617547 61.85147359 -14 58 C-14.0849393 55.34130872 -14.11602423 52.70893227 -14.09765625 50.05078125 C-14.09664917 49.36576538 -14.09564209 48.68074951 -14.09460449 47.97497559 C-14.08938007 45.42079998 -14.07541879 42.86664828 -14.0625 40.3125 C-14.041875 34.599375 -14.02125 28.88625 -14 23 C-32.81 23.495 -32.81 23.495 -52 24 C-50 22 -50 22 -46.46826172 21.77294922 C-44.95536669 21.77326637 -43.44244912 21.78459367 -41.9296875 21.8046875 C-41.13345978 21.8075174 -40.33723206 21.81034729 -39.51687622 21.81326294 C-36.96943237 21.8244736 -34.42233789 21.84957938 -31.875 21.875 C-30.14974465 21.88502867 -28.42448381 21.89415472 -26.69921875 21.90234375 C-22.46601086 21.92441578 -18.2330647 21.95895133 -14 22 C-14.02320313 20.96359375 -14.04640625 19.9271875 -14.0703125 18.859375 C-14.08907667 17.48959056 -14.10727618 16.1197983 -14.125 14.75 C-14.14175781 14.06808594 -14.15851563 13.38617188 -14.17578125 12.68359375 C-14.21201371 8.9516508 -14.16424686 6.11531728 -12 3 C-8.08736025 -0.1301118 -4.93808792 -0.86633121 0 0 Z " fill="#C8DCE1" transform="translate(254,56)"/>
<path d="M0 0 C4.3770238 -0.18913066 8.74587384 -0.32779796 13.125 -0.4375 C14.98125 -0.52547852 14.98125 -0.52547852 16.875 -0.61523438 C18.07382812 -0.63779297 19.27265625 -0.66035156 20.5078125 -0.68359375 C21.60754395 -0.72025146 22.70727539 -0.75690918 23.84033203 -0.79467773 C27.77965435 0.19608831 29.39761423 1.58980168 31.84365845 4.77449036 C34.07074796 9.06077512 33.81232262 13.45694602 33.7265625 18.19140625 C33.72755951 19.25487778 33.72855652 20.3183493 33.72958374 21.41404724 C33.72491865 23.65395615 33.70555787 25.89387713 33.67236328 28.13354492 C33.62509695 31.55548078 33.63126032 34.97430401 33.64453125 38.39648438 C33.63337863 40.57814351 33.61915943 42.75978958 33.6015625 44.94140625 C33.60429672 46.46973839 33.60429672 46.46973839 33.60708618 48.02894592 C33.48872324 53.97669953 32.98772015 57.48562547 29 62 C25.50663182 64.32891212 24.13992135 64.23551143 20.01953125 64.1953125 C18.85615234 64.18886719 17.69277344 64.18242187 16.49414062 64.17578125 C14.67172852 64.15064453 14.67172852 64.15064453 12.8125 64.125 C11.58595703 64.11597656 10.35941406 64.10695313 9.09570312 64.09765625 C6.06371915 64.07406104 3.03183527 64.03818967 0 64 C0 57.73 0 51.46 0 45 C3.96 45 7.92 45 12 45 C11.67 36.42 11.34 27.84 11 19 C7.37 19 3.74 19 0 19 C0 12.73 0 6.46 0 0 Z " fill="#20495C" transform="translate(350,289)"/>
<path d="M0 0 C0 0.66 0 1.32 0 2 C0.61875 2.12375 1.2375 2.2475 1.875 2.375 C4 3 4 3 6 5 C6.44140625 7.1015625 6.44140625 7.1015625 6.5625 9.625 C6.62566406 10.44226563 6.68882812 11.25953125 6.75390625 12.1015625 C4.45284338 20.94813583 -6.21916955 28.33532142 -12.625 34.6875 C-13.65909041 35.71655953 -14.69294602 36.74585507 -15.7265625 37.77539062 C-17.62697857 39.66772395 -19.528976 41.5584121 -21.43212891 43.44799805 C-23.18160126 45.18665887 -24.91780334 46.93875117 -26.64208984 48.70239258 C-30.86435767 52.81667737 -30.86435767 52.81667737 -33.91015625 53.30834961 C-41.88302908 52.96197821 -45.80719614 48.14820712 -51 42.5625 C-51.85722656 41.67755859 -52.71445312 40.79261719 -53.59765625 39.88085938 C-61.4637333 31.69689807 -61.4637333 31.69689807 -61.33203125 24.26171875 C-61 22 -61 22 -59.0625 19 C-55.09373342 16.40815244 -51.72173616 15.67405926 -47 16 C-44.4375 17.3125 -44.4375 17.3125 -43 19 C-43 19.66 -43 20.32 -43 21 C-42.34 21 -41.68 21 -41 21 C-41 21.66 -41 22.32 -41 23 C-38.95388775 24.24228244 -37.60054356 25.04573197 -35.17578125 24.86108398 C-32.03210541 23.61694746 -30.28282117 21.58168308 -27.9375 19.16015625 C-27.4643335 18.67800156 -26.99116699 18.19584686 -26.50366211 17.69908142 C-24.99508497 16.16053739 -23.49680782 14.61249022 -22 13.0625 C-20.50237075 11.51695624 -19.00256289 9.97380019 -17.49633789 8.43663025 C-16.12862521 7.04017126 -14.76917155 5.63563749 -13.41015625 4.23071289 C-8.94591025 0.09884339 -6.06170746 -0.23314259 0 0 Z " fill="#59E268" transform="translate(377,206)"/>
<path d="M0 0 C0.75023437 0.04382812 1.50046875 0.08765625 2.2734375 0.1328125 C4.625 0.875 4.625 0.875 9.625 5.875 C9.625 10.825 9.625 15.775 9.625 20.875 C21.505 20.875 33.385 20.875 45.625 20.875 C45.625 21.205 45.625 21.535 45.625 21.875 C33.745 21.875 21.865 21.875 9.625 21.875 C9.86203264 33.49828368 9.86203264 33.49828368 10.16552734 45.11987305 C10.18306123 46.58379487 10.19834816 48.04774606 10.2109375 49.51171875 C10.2416333 50.2634436 10.2723291 51.01516846 10.30395508 51.78967285 C10.3068857 54.7413021 10.23849992 57.12554445 8.31964111 59.46963501 C5.11061813 62.19779839 2.50647451 63.73938854 -1.625 64.375 C-6.21730035 63.76269329 -7.31310002 62.64342191 -10.12225342 59.15170288 C-12.57605636 54.69223732 -12.18570635 49.93069662 -12.1015625 44.95703125 C-12.10255951 43.82222824 -12.10355652 42.68742523 -12.10458374 41.51823425 C-12.09991755 39.12870244 -12.08055032 36.73915942 -12.04736328 34.34985352 C-12.00001585 30.68872586 -12.00626991 27.03049833 -12.01953125 23.36914062 C-12.00838186 21.04425345 -11.99416472 18.71937853 -11.9765625 16.39453125 C-11.97838531 15.29969925 -11.98020813 14.20486725 -11.98208618 13.07685852 C-11.96302216 12.05867538 -11.94395813 11.04049225 -11.92431641 9.99145508 C-11.91510162 9.09767654 -11.90588684 8.20389801 -11.89639282 7.28303528 C-11.20662754 4.09737742 -9.87811271 2.90095852 -7.375 0.875 C-4.47245657 -0.09251448 -2.97950105 -0.23388575 0 0 Z " fill="#95B4C1" transform="translate(450.375,57.125)"/>
<path d="M0 0 C2.71789624 2.06185232 4.48126974 4.26275012 5.8125 7.375 C6.31744399 11.09748197 6.18719241 14.75608635 6.0546875 18.50390625 C6.03157501 19.5711644 6.00846252 20.63842255 5.98464966 21.73802185 C5.93180026 23.98827684 5.86899482 26.23831728 5.796875 28.48803711 C5.68777926 31.92869279 5.61083966 35.3689306 5.5390625 38.81054688 C5.48365996 41.00004862 5.42643008 43.18950504 5.3671875 45.37890625 C5.34308807 46.40609268 5.31898865 47.43327911 5.29415894 48.49159241 C5.24498825 49.93350197 5.24498825 49.93350197 5.19482422 51.40454102 C5.16943573 52.24582047 5.14404724 53.08709991 5.1178894 53.95387268 C4.62417311 57.86805563 3.71323262 60.60672806 0.6875 63.1875 C-2.91938622 64.67730083 -6.39937265 65.6448836 -10.1875 64.375 C-13.25515139 61.65873886 -14.91075536 59.89222384 -15.65383911 55.81834412 C-15.83269732 52.65900715 -15.85411064 49.53532702 -15.81640625 46.37109375 C-15.81881821 45.21505142 -15.82123016 44.05900909 -15.82371521 42.86793518 C-15.82273772 40.42958131 -15.80936773 37.99120499 -15.78442383 35.55297852 C-15.75008432 31.82166199 -15.76378037 28.09271011 -15.78320312 24.36132812 C-15.77630543 21.98957326 -15.76663375 19.6178245 -15.75390625 17.24609375 C-15.75886612 16.1314122 -15.76382599 15.01673065 -15.76893616 13.86827087 C-15.65151952 6.14725894 -15.65151952 6.14725894 -13.27709961 2.19555664 C-9.26563195 -1.29942109 -5.10978697 -1.45993914 0 0 Z " fill="#91B7C3" transform="translate(388.1875,56.625)"/>
<path d="M0 0 C0 0.66 0 1.32 0 2 C0.928125 2.185625 0.928125 2.185625 1.875 2.375 C4 3 4 3 6 5 C6.44140625 7.1015625 6.44140625 7.1015625 6.5625 9.625 C6.62566406 10.44226563 6.68882812 11.25953125 6.75390625 12.1015625 C4.42332033 21.06163892 -6.95675526 29.06990848 -13.4375 35.5 C-14.5620833 36.61955632 -15.68643405 37.73934629 -16.81054688 38.859375 C-19.53769344 41.57561534 -22.26795907 44.28868292 -25 47 C-25.99 46.67 -26.98 46.34 -28 46 C-28.08736736 42.27098186 -28.14051482 38.54222835 -28.1875 34.8125 C-28.21263672 33.75740234 -28.23777344 32.70230469 -28.26367188 31.61523438 C-28.27333984 30.59365234 -28.28300781 29.57207031 -28.29296875 28.51953125 C-28.31653442 27.11344604 -28.31653442 27.11344604 -28.34057617 25.67895508 C-27.72274594 20.81913346 -24.93196656 17.67665227 -21.53125 14.3359375 C-20.55091797 13.36527344 -20.55091797 13.36527344 -19.55078125 12.375 C-18.87402344 11.715 -18.19726562 11.055 -17.5 10.375 C-16.82324219 9.70726562 -16.14648438 9.03953125 -15.44921875 8.3515625 C-14.19174048 7.11144586 -12.93221047 5.87340356 -11.66992188 4.63818359 C-9.98784016 3.02994898 -9.98784016 3.02994898 -8.51367188 1.29931641 C-5.9768238 -0.87828125 -3.18645162 -0.18036519 0 0 Z " fill="#04B54D" transform="translate(377,206)"/>
<path d="M0 0 C8.25 0 16.5 0 25 0 C25.020625 3.774375 25.04125 7.54875 25.0625 11.4375 C25.071604 12.62915771 25.08070801 13.82081543 25.09008789 15.04858398 C25.09258545 15.98001221 25.09508301 16.91144043 25.09765625 17.87109375 C25.10551147 19.30859985 25.10551147 19.30859985 25.11352539 20.77514648 C25 23 25 23 24 24 C22.21928754 24.08726223 20.4351686 24.10699041 18.65234375 24.09765625 C17.68031006 24.09515869 16.70827637 24.09266113 15.70678711 24.09008789 C14.46292236 24.08098389 13.21905762 24.07187988 11.9375 24.0625 C7.998125 24.041875 4.05875 24.02125 0 24 C0 16.08 0 8.16 0 0 Z " fill="#C5E0E5" transform="translate(431,221)"/>
<path d="M0 0 C7.92 0 15.84 0 24 0 C24 7.92 24 15.84 24 24 C16.08 24 8.16 24 0 24 C0 16.08 0 8.16 0 0 Z " fill="#BAD7DD" transform="translate(432,309)"/>
<path d="M0 0 C7.92 0 15.84 0 24 0 C24 7.92 24 15.84 24 24 C16.08 24 8.16 24 0 24 C0 16.08 0 8.16 0 0 Z " fill="#DAE6E7" transform="translate(244,309)"/>
<path d="M0 0 C7.59 0 15.18 0 23 0 C23 7.92 23 15.84 23 24 C15.41 24 7.82 24 0 24 C0 16.08 0 8.16 0 0 Z " fill="#B8D4DA" transform="translate(338,309)"/>
<path d="M0 0 C7.59 0 15.18 0 23 0 C23 7.59 23 15.18 23 23 C15.41 23 7.82 23 0 23 C0 15.41 0 7.82 0 0 Z " fill="#E1EBEB" transform="translate(244,221)"/>
<path d="M0 0 C3.63 0 7.26 0 11 0 C11 7.26 11 14.52 11 22 C7.37 22 3.74 22 0 22 C0 14.74 0 7.48 0 0 Z " fill="#E5EFEE" transform="translate(339,310)"/>
<path d="M0 0 C8.25 0 16.5 0 25 0 C25.020625 3.774375 25.04125 7.54875 25.0625 11.4375 C25.071604 12.62915771 25.08070801 13.82081543 25.09008789 15.04858398 C25.09258545 15.98001221 25.09508301 16.91144043 25.09765625 17.87109375 C25.10551147 19.30859985 25.10551147 19.30859985 25.11352539 20.77514648 C25 23 25 23 24 24 C22.21928754 24.08726223 20.4351686 24.10699041 18.65234375 24.09765625 C17.68031006 24.09515869 16.70827637 24.09266113 15.70678711 24.09008789 C14.46292236 24.08098389 13.21905762 24.07187988 11.9375 24.0625 C7.998125 24.041875 4.05875 24.02125 0 24 C0 16.08 0 8.16 0 0 Z M2 1 C2 7.93 2 14.86 2 22 C9.26 22 16.52 22 24 22 C24 15.07 24 8.14 24 1 C16.74 1 9.48 1 2 1 Z " fill="#81A4B0" transform="translate(431,221)"/>
<path d="M0 0 C0.66 0 1.32 0 2 0 C0.79618552 2.49361571 -0.45428722 4.68143083 -2 7 C-2.29602342 9.2535568 -2.29602342 9.2535568 -2.24291992 11.77514648 C-2.24753487 13.22696571 -2.24753487 13.22696571 -2.25224304 14.70811462 C-2.24505753 15.75189774 -2.23787201 16.79568085 -2.23046875 17.87109375 C-2.23001053 18.94496841 -2.22955231 20.01884308 -2.2290802 21.1252594 C-2.22605784 23.39740096 -2.21817206 25.66954045 -2.20581055 27.94165039 C-2.18759083 31.42015934 -2.18530064 34.89840151 -2.18554688 38.37695312 C-2.18063016 40.58333564 -2.17480118 42.78971634 -2.16796875 44.99609375 C-2.16629951 46.55873207 -2.16629951 46.55873207 -2.16459656 48.15293884 C-2.15821671 49.12397049 -2.15183685 50.09500214 -2.14526367 51.09545898 C-2.14145187 51.94800766 -2.13764008 52.80055634 -2.13371277 53.67893982 C-2.0049955 55.91328539 -1.62167322 57.855495 -1 60 C-1.66 60 -2.32 60 -3 60 C-3.99635978 57.01092067 -4.12666936 55.03848022 -4.12939453 51.91772461 C-4.13254669 50.88332748 -4.13569885 49.84893036 -4.13894653 48.78318787 C-4.1369223 47.66750931 -4.13489807 46.55183075 -4.1328125 45.40234375 C-4.13376923 44.2571376 -4.13472595 43.11193146 -4.13571167 41.93202209 C-4.13639247 39.51026352 -4.13454515 37.08850312 -4.13037109 34.66674805 C-4.12501658 30.94901456 -4.13032202 27.23140162 -4.13671875 23.51367188 C-4.13605805 21.16406223 -4.13477705 18.81445266 -4.1328125 16.46484375 C-4.13483673 15.34714096 -4.13686096 14.22943817 -4.13894653 13.0778656 C-4.13579437 12.04662064 -4.13264221 11.01537567 -4.12939453 9.95288086 C-4.12859894 9.04259628 -4.12780334 8.13231171 -4.12698364 7.19444275 C-4 5 -4 5 -3 3 C-2.34 3 -1.68 3 -1 3 C-0.67 2.01 -0.34 1.02 0 0 Z " fill="#6B919F" transform="translate(227,290)"/>
<path d="M0 0 C1.485 0.99 1.485 0.99 3 2 C5.51584891 2.24150773 5.51584891 2.24150773 8.1875 2.125 C9.53908203 2.09792969 9.53908203 2.09792969 10.91796875 2.0703125 C11.94857422 2.03550781 11.94857422 2.03550781 13 2 C12.67 2.99 12.34 3.98 12 5 C10.3739713 4.93999894 8.74898451 4.8512115 7.125 4.75 C5.76761719 4.68039063 5.76761719 4.68039063 4.3828125 4.609375 C2 4 2 4 0.6796875 1.953125 C0.45539063 1.30859375 0.23109375 0.6640625 0 0 Z " fill="#F82369" transform="translate(375,118)"/>
</svg>
