<?xml version="1.0" encoding="UTF-8"?>
<svg version="1.1" xmlns="http://www.w3.org/2000/svg" width="256" height="256">
<path d="M0 0 C1.90625 0.4296875 1.90625 0.4296875 4.40625 2.2421875 C5.90625 5.4296875 5.90625 5.4296875 5.90625 16.4296875 C16.46625 16.4296875 27.02625 16.4296875 37.90625 16.4296875 C37.90625 12.4696875 37.90625 8.5096875 37.90625 4.4296875 C41.90625 0.4296875 41.90625 0.4296875 43.90625 -0.13671875 C47.55341647 -0.12959538 49.38509678 0.05185142 52.40625 2.2421875 C53.90625 5.4296875 53.90625 5.4296875 53.90625 16.4296875 C64.46625 16.4296875 75.02625 16.4296875 85.90625 16.4296875 C85.90625 12.7996875 85.90625 9.1696875 85.90625 5.4296875 C87.40625 2.2421875 87.40625 2.2421875 89.90625 0.4296875 C92.70597867 -0.20139888 95.13592088 -0.35487836 97.90625 0.4296875 C101.90625 4.4296875 101.90625 4.4296875 101.90625 16.4296875 C112.46625 16.4296875 123.02625 16.4296875 133.90625 16.4296875 C133.90625 12.7996875 133.90625 9.1696875 133.90625 5.4296875 C135.40625 2.2421875 135.40625 2.2421875 137.90625 0.4296875 C140.70597867 -0.20139888 143.13592088 -0.35487836 145.90625 0.4296875 C148.79163936 2.6795565 149.81960718 3.76080491 150.296875 7.4453125 C150.25046875 8.51265625 150.2040625 9.58 150.15625 10.6796875 C150.12015625 11.75734375 150.0840625 12.835 150.046875 13.9453125 C150.00046875 14.76515625 149.9540625 15.585 149.90625 16.4296875 C150.70208496 16.40350342 151.49791992 16.37731934 152.31787109 16.3503418 C155.97212471 16.24551753 159.62606079 16.18108941 163.28125 16.1171875 C164.53292969 16.07529297 165.78460938 16.03339844 167.07421875 15.99023438 C176.17458385 15.87111965 183.22263096 17.07252194 190.04638672 23.4206543 C196.14875036 29.81727753 198.36283638 36.03298861 198.30065918 44.79695129 C198.30675028 45.61258708 198.31284139 46.42822287 198.31911707 47.26857489 C198.33569728 49.98754319 198.33097841 52.7060406 198.32617188 55.42504883 C198.33351515 57.38027938 198.34210213 59.3355056 198.35183716 61.29072571 C198.37403599 66.5925049 198.3769846 71.8941286 198.37508965 77.19594789 C198.37496986 81.6267108 198.38353761 86.05744088 198.39186716 90.48819464 C198.41109585 100.94470743 198.41398718 111.40114039 198.40722656 121.85766602 C198.40058788 132.63284867 198.42344459 143.40768882 198.46054029 154.18280202 C198.49126386 163.44418933 198.50259438 172.70546663 198.49870348 181.96690387 C198.49663853 187.4937606 198.50207605 193.02035086 198.52659607 198.54715919 C198.54890403 203.74708228 198.54695146 208.94644974 198.52666855 214.14637566 C198.52326555 216.04984089 198.52831683 217.95334382 198.54265213 219.85675812 C198.68571023 240.2675088 198.68571023 240.2675088 190.91646576 248.55123615 C184.28505284 254.93900539 177.90580958 256.88289172 168.93156433 256.82409668 C168.05059171 256.83018778 167.16961908 256.83627889 166.26195031 256.84255457 C163.32188053 256.85914966 160.3822455 256.85441371 157.44213867 256.84960938 C155.32927502 256.85695177 153.21641538 256.8655385 151.1035614 256.87527466 C145.37204675 256.89748255 139.64067591 256.90042165 133.90912414 256.89852715 C129.12047499 256.8984074 124.33185625 256.90697335 119.54321557 256.91530466 C108.24290105 256.93453655 96.94266039 256.93742349 85.64233398 256.93066406 C73.99465644 256.92402489 62.34729571 256.9468834 50.69968241 256.98397779 C40.69095671 257.01469323 30.6823328 257.02603276 20.67356092 257.02214098 C14.69958123 257.02007522 8.72584803 257.02552619 2.75191307 257.05003357 C-2.86823354 257.07232803 -8.48786591 257.07039995 -14.10801506 257.05010605 C-16.16628546 257.04670071 -18.22459066 257.05176447 -20.28281403 257.06608963 C-41.9511051 257.20644923 -41.9511051 257.20644923 -50.20956135 249.43990326 C-56.35295815 243.08226994 -58.55025137 236.81440489 -58.48815918 228.06242371 C-58.49425028 227.24678792 -58.50034139 226.43115213 -58.50661707 225.59080011 C-58.52319728 222.87183181 -58.51847841 220.1533344 -58.51367188 217.43432617 C-58.52101515 215.47909562 -58.52960213 213.5238694 -58.53933716 211.56864929 C-58.56153599 206.2668701 -58.5644846 200.9652464 -58.56258965 195.66342711 C-58.56246986 191.2326642 -58.57103761 186.80193412 -58.57936716 182.37118036 C-58.59859585 171.91466757 -58.60148718 161.45823461 -58.59472656 151.00170898 C-58.58808788 140.22652633 -58.61094459 129.45168618 -58.64804029 118.67657298 C-58.67876386 109.41518567 -58.69009438 100.15390837 -58.68620348 90.89247113 C-58.68413853 85.3656144 -58.68957605 79.83902414 -58.71409607 74.31221581 C-58.73640403 69.11229272 -58.73445146 63.91292526 -58.71416855 58.71299934 C-58.71076555 56.80953411 -58.71581683 54.90603118 -58.73015213 53.00261688 C-58.87321023 32.5918662 -58.87321023 32.5918662 -51.10396576 24.30813885 C-43.76828289 17.24197514 -37.4875202 16.08838864 -27.52539062 16.16601562 C-26.24857422 16.19115234 -24.97175781 16.21628906 -23.65625 16.2421875 C-22.35236328 16.25572266 -21.04847656 16.26925781 -19.70507812 16.28320312 C-16.50087378 16.31841416 -13.29752895 16.36766656 -10.09375 16.4296875 C-10.14015625 15.60984375 -10.1865625 14.79 -10.234375 13.9453125 C-10.28851563 12.32882812 -10.28851563 12.32882812 -10.34375 10.6796875 C-10.39015625 9.61234375 -10.4365625 8.545 -10.484375 7.4453125 C-9.68078367 1.24158745 -5.65005625 -0.35839909 0 0 Z " fill="#C4E0E5" transform="translate(58.09375,-0.4296875)"/>
<path d="M0 0 C42.24 0 84.48 0 128 0 C128 17.16 128 34.32 128 52 C124 56 124 56 122.0625 56.0625 C120 55 120 55 117.75 52.4375 C114.87324243 49.8876467 114.40946272 49.62754453 110.8125 49.5625 C106.98392511 49.60148679 106.98392511 49.60148679 105 52 C104.28254113 57.15962937 104.28254113 57.15962937 106.11376953 61.85498047 C107.67085519 63.67542316 109.31042666 65.30440645 111.0625 66.9375 C111.62388672 67.51306641 112.18527344 68.08863281 112.76367188 68.68164062 C116.62621873 72.42941466 119.42810452 73.89966575 125 74 C125.99 73.67 126.98 73.34 128 73 C128 80.59 128 88.18 128 96 C119.3125 96.1875 119.3125 96.1875 116.6027832 96.20776367 C115.88437256 96.23588135 115.16596191 96.26399902 114.42578125 96.29296875 C113.69786377 96.3086792 112.96994629 96.32438965 112.2199707 96.34057617 C108.69410844 97.38790422 107.21204523 99.09889838 105 102 C104.51232547 104.93095224 104.31917972 107.26659156 104.37109375 110.1875 C104.36868179 110.96762451 104.36626984 111.74774902 104.36378479 112.55151367 C104.36476122 114.19552714 104.37810628 115.83957432 104.40307617 117.48339844 C104.43739985 119.99267824 104.42372463 122.49843578 104.40429688 125.0078125 C104.41119574 126.60938991 104.4208685 128.21095828 104.43359375 129.8125 C104.42863388 130.55846436 104.42367401 131.30442871 104.41856384 132.07299805 C104.54201255 137.56267754 105.26689984 138.3336248 109 143 C115.27 143.33 121.54 143.66 128 144 C128 157.2 128 170.4 128 184 C114.09127223 184.1131272 100.18285189 184.20478972 86.27376747 184.25906086 C79.81466146 184.28511313 73.35588756 184.32043246 66.89697266 184.37719727 C60.65942512 184.4316712 54.42219629 184.46145339 48.18442917 184.47438622 C45.80905519 184.48359836 43.43369791 184.50158755 41.05846024 184.52865028 C37.72170064 184.56514359 34.38624463 184.56993668 31.04931641 184.56762695 C29.5884259 184.59459152 29.5884259 184.59459152 28.09802246 184.62210083 C20.25328079 184.56365002 13.68644228 182.4055503 7.84589577 177.01002979 C2.19058555 171.03242883 -0.37967369 165.15805341 -0.36076355 156.93214417 C-0.36332682 156.2564606 -0.3658901 155.58077704 -0.36853105 154.88461822 C-0.37343911 152.63970766 -0.35702643 150.39548247 -0.34057617 148.15063477 C-0.33972925 146.53385941 -0.34020631 144.91708291 -0.34190369 143.30030823 C-0.34276253 138.92472742 -0.32515482 134.54939459 -0.30418181 130.17387128 C-0.28539646 125.59614658 -0.28366311 121.01841586 -0.28010559 116.44065857 C-0.27079059 107.77809141 -0.24618417 99.11563818 -0.21605712 90.45312113 C-0.17621777 78.74318912 -0.16005384 67.03322585 -0.14255047 55.32324314 C-0.11436269 36.88207681 -0.05458953 18.44115084 0 0 Z " fill="#E6EFEE" transform="translate(0,72)"/>
<path d="M0 0 C1.90625 0.4296875 1.90625 0.4296875 4.40625 2.2421875 C5.90625 5.4296875 5.90625 5.4296875 5.90625 16.4296875 C16.46625 16.4296875 27.02625 16.4296875 37.90625 16.4296875 C37.90625 12.4696875 37.90625 8.5096875 37.90625 4.4296875 C41.90625 0.4296875 41.90625 0.4296875 43.90625 -0.13671875 C47.55341647 -0.12959538 49.38509678 0.05185142 52.40625 2.2421875 C53.90625 5.4296875 53.90625 5.4296875 53.90625 16.4296875 C64.46625 16.4296875 75.02625 16.4296875 85.90625 16.4296875 C85.90625 12.7996875 85.90625 9.1696875 85.90625 5.4296875 C87.40625 2.2421875 87.40625 2.2421875 89.90625 0.4296875 C92.70597867 -0.20139888 95.13592088 -0.35487836 97.90625 0.4296875 C101.90625 4.4296875 101.90625 4.4296875 101.90625 16.4296875 C112.46625 16.4296875 123.02625 16.4296875 133.90625 16.4296875 C133.90625 12.7996875 133.90625 9.1696875 133.90625 5.4296875 C135.40625 2.2421875 135.40625 2.2421875 137.90625 0.4296875 C140.70597867 -0.20139888 143.13592088 -0.35487836 145.90625 0.4296875 C148.79163936 2.6795565 149.81960718 3.76080491 150.296875 7.4453125 C150.25046875 8.51265625 150.2040625 9.58 150.15625 10.6796875 C150.12015625 11.75734375 150.0840625 12.835 150.046875 13.9453125 C150.00046875 14.76515625 149.9540625 15.585 149.90625 16.4296875 C150.70208496 16.40350342 151.49791992 16.37731934 152.31787109 16.3503418 C155.97212471 16.24551753 159.62606079 16.18108941 163.28125 16.1171875 C164.53292969 16.07529297 165.78460938 16.03339844 167.07421875 15.99023438 C176.17458385 15.87111965 183.22263096 17.07252194 190.04638672 23.4206543 C203.24771615 37.25855965 197.90625 52.26630963 197.90625 72.4296875 C113.42625 72.4296875 28.94625 72.4296875 -58.09375 72.4296875 C-58.09375 31.51033266 -58.09375 31.51033266 -49.21875 22.4921875 C-41.26842449 15.72276808 -33.69868143 16.04448188 -23.65625 16.2421875 C-22.35236328 16.25572266 -21.04847656 16.26925781 -19.70507812 16.28320312 C-16.50087378 16.31841416 -13.29752895 16.36766656 -10.09375 16.4296875 C-10.14015625 15.60984375 -10.1865625 14.79 -10.234375 13.9453125 C-10.28851563 12.32882812 -10.28851563 12.32882812 -10.34375 10.6796875 C-10.39015625 9.61234375 -10.4365625 8.545 -10.484375 7.4453125 C-9.68078367 1.24158745 -5.65005625 -0.35839909 0 0 Z " fill="#FE5C5D" transform="translate(58.09375,-0.4296875)"/>
<path d="M0 0 C2 0.56640625 2 0.56640625 6 4.56640625 C6 8.52640625 6 12.48640625 6 16.56640625 C16.56 16.56640625 27.12 16.56640625 38 16.56640625 C38 12.93640625 38 9.30640625 38 5.56640625 C39.5 2.37890625 39.5 2.37890625 42 0.56640625 C44.79972867 -0.06468013 47.22967088 -0.21815961 50 0.56640625 C52.88538936 2.81627525 53.91335718 3.89752366 54.390625 7.58203125 C54.34421875 8.649375 54.2978125 9.71671875 54.25 10.81640625 C54.21390625 11.8940625 54.1778125 12.97171875 54.140625 14.08203125 C54.09421875 14.901875 54.0478125 15.72171875 54 16.56640625 C54.79583496 16.54022217 55.59166992 16.51403809 56.41162109 16.48706055 C60.06587471 16.38223628 63.71981079 16.31780816 67.375 16.25390625 C68.62667969 16.21201172 69.87835938 16.17011719 71.16796875 16.12695312 C80.26833385 16.0078384 87.31638096 17.20924069 94.14013672 23.55737305 C107.12885966 37.1724199 102 51.6659767 102 71.56640625 C59.76 71.56640625 17.52 71.56640625 -26 71.56640625 C-26 53.41640625 -26 35.26640625 -26 16.56640625 C-20.72 16.56640625 -15.44 16.56640625 -10 16.56640625 C-10.0825 14.85453125 -10.165 13.14265625 -10.25 11.37890625 C-10.23097342 7.68775022 -10.09314559 5.76434062 -8.5 2.37890625 C-5.47884678 0.18857017 -3.64716647 0.00712337 0 0 Z " fill="#FE0059" transform="translate(154,-0.56640625)"/>
<path d="M0 0 C0.87269531 -0.00478363 1.74539062 -0.00956726 2.64453125 -0.01449585 C4.48699753 -0.01789364 6.3295242 -0.00869953 8.171875 0.01220703 C10.99095163 0.03897658 13.80604709 0.01245757 16.625 -0.01953125 C18.41667545 -0.01622713 20.20834842 -0.00982084 22 0 C22.84175781 -0.01012115 23.68351562 -0.02024231 24.55078125 -0.03067017 C28.49487108 0.04825399 30.38623512 0.17193778 33.53149414 2.69384766 C35.39465168 6.46228899 35.5580497 9.73753194 35.49609375 13.8515625 C35.49754898 14.63168701 35.49900421 15.41181152 35.50050354 16.21557617 C35.49884877 17.85957588 35.48733469 19.50359176 35.46655273 21.14746094 C35.43758994 23.65627194 35.44595301 26.1629685 35.45898438 28.671875 C35.45274638 30.27344771 35.44435496 31.87501379 35.43359375 33.4765625 C35.43652939 34.22252686 35.43946503 34.96849121 35.44248962 35.73706055 C35.36203792 40.2037749 34.76555101 43.11469222 32 46.6640625 C27.03975834 49.14418333 19.40457533 48.01919699 13.88842773 48.0690918 C12.09298474 48.09067671 10.29764711 48.1247859 8.50268555 48.17163086 C5.91146975 48.23863478 3.32242859 48.26608814 0.73046875 48.28515625 C-0.46821587 48.32690224 -0.46821587 48.32690224 -1.69111633 48.36949158 C-6.03651998 48.35350078 -7.55738267 48.03522269 -11.00634766 45.14306641 C-13.54769178 41.47530588 -13.70674662 37.72824086 -13.62890625 33.37890625 C-13.63131821 32.60019669 -13.63373016 31.82148712 -13.63621521 31.0191803 C-13.63524014 29.381143 -13.62192789 27.74307135 -13.59692383 26.10522461 C-13.56254472 23.60481483 -13.57629649 21.10793052 -13.59570312 18.60742188 C-13.58880557 17.0104017 -13.57913398 15.4133906 -13.56640625 13.81640625 C-13.57136612 13.07357895 -13.57632599 12.33075165 -13.58143616 11.56541443 C-13.50470824 8.16901456 -13.04140834 5.74750377 -11.52709961 2.69604492 C-7.80979184 -0.29295639 -4.64697044 -0.05587439 0 0 Z " fill="#2C6179" transform="translate(117,168.3359375)"/>
<path d="M0 0 C0.77775284 -0.00478363 1.55550568 -0.00956726 2.35682678 -0.01449585 C3.99661285 -0.01788794 5.63646718 -0.00873366 7.27612305 0.01220703 C9.77482336 0.0389519 12.26901804 0.01246056 14.76757812 -0.01953125 C16.36589526 -0.01622631 17.96420961 -0.00981833 19.5625 0 C20.30330307 -0.01012115 21.04410614 -0.02024231 21.80735779 -0.03067017 C25.5029191 0.05204597 28.3093153 0.57429691 31.32006836 2.68017578 C34.51824228 6.45570767 34.68791061 9.33093455 34.57421875 14.0703125 C34.57521576 14.87263306 34.57621277 15.67495361 34.57723999 16.50158691 C34.57257276 18.19272808 34.55319817 19.88388493 34.52001953 21.57470703 C34.4727938 24.15654285 34.4789053 26.73424767 34.4921875 29.31640625 C34.48103314 30.96356617 34.46681283 32.61070878 34.44921875 34.2578125 C34.45195297 35.4095697 34.45195297 35.4095697 34.45474243 36.58459473 C34.32404625 41.54980678 33.41177651 44.18581462 29.84765625 47.6640625 C25.08292377 50.04642874 17.88707027 48.9763171 12.59057617 49.01416016 C10.89219451 49.03071074 9.19388224 49.05798935 7.49584961 49.09619141 C5.04374162 49.15105908 2.59326478 49.17284763 0.140625 49.1875 C-0.61475052 49.21016937 -1.37012604 49.23283875 -2.14839172 49.25619507 C-5.9097055 49.24117942 -7.98444891 48.77650646 -11.12915039 46.67041016 C-13.82428641 42.6655948 -13.87699378 39.76645725 -13.81640625 35.0390625 C-13.82118988 34.2145459 -13.82597351 33.3900293 -13.8309021 32.54052734 C-13.83429497 30.80238937 -13.82513528 29.06418706 -13.80419922 27.32617188 C-13.77742104 24.67172425 -13.80396371 22.02150425 -13.8359375 19.3671875 C-13.83263329 17.67446987 -13.82622681 15.98175487 -13.81640625 14.2890625 C-13.8265274 13.49935059 -13.83664856 12.70963867 -13.84707642 11.89599609 C-13.76258784 7.90619195 -13.41531473 6.05199446 -11.12036133 2.66650391 C-7.38403941 0.14570829 -4.36377615 -0.05945723 0 0 Z " fill="#224B5D" transform="translate(186.15234375,103.3359375)"/>
<path d="M0 0 C0.77870956 -0.00478363 1.55741913 -0.00956726 2.35972595 -0.01449585 C3.99773186 -0.01788285 5.63580648 -0.00876448 7.27368164 0.01220703 C9.77448556 0.03903184 12.27081744 0.01240575 14.77148438 -0.01953125 C16.36849944 -0.01622764 17.96551173 -0.0098224 19.5625 0 C20.3053273 -0.01012115 21.0481546 -0.02024231 21.81349182 -0.03067017 C25.52310566 0.05273386 27.58985864 0.57973842 30.68286133 2.66650391 C33.3932355 6.66481871 33.43951873 9.55972095 33.37890625 14.2890625 C33.38368988 15.1135791 33.38847351 15.9380957 33.3934021 16.78759766 C33.39679497 18.52573563 33.38763528 20.26393794 33.36669922 22.00195312 C33.33992104 24.65640075 33.36646371 27.30662075 33.3984375 29.9609375 C33.39513329 31.65365513 33.38872681 33.34637013 33.37890625 35.0390625 C33.3890274 35.82877441 33.39914856 36.61848633 33.40957642 37.43212891 C33.3251082 41.42097171 32.97648196 43.27739559 30.68505859 46.66381836 C26.93370829 49.1901058 23.90394219 49.37075512 19.52734375 49.29296875 C18.35715698 49.29658669 18.35715698 49.29658669 17.16333008 49.30027771 C15.51931661 49.29930128 13.87526943 49.28595622 12.23144531 49.26098633 C9.72216551 49.22666265 7.21640797 49.24033787 4.70703125 49.25976562 C3.10545384 49.25286676 1.50388547 49.243194 -0.09765625 49.23046875 C-0.84362061 49.23542862 -1.58958496 49.24038849 -2.3581543 49.24549866 C-7.27231201 49.13499195 -9.83949923 48.17494088 -13.28515625 44.6640625 C-15.7191934 39.79598819 -14.63988526 32.39133559 -14.69018555 26.97973633 C-14.71176881 25.23279048 -14.74587617 23.48595288 -14.79272461 21.73950195 C-14.85974496 19.21777188 -14.88718406 16.69827636 -14.90625 14.17578125 C-14.93408066 13.39853195 -14.96191132 12.62128265 -14.99058533 11.82048035 C-14.97490122 7.67159406 -14.4629878 5.87501143 -11.76416016 2.67358398 C-8.09971975 0.12134733 -4.35459241 -0.05949422 0 0 Z " fill="#2C617A" transform="translate(50.28515625,103.3359375)"/>
<path d="M0 0 C1.2757489 -0.00574036 1.2757489 -0.00574036 2.57727051 -0.01159668 C4.37265204 -0.01431458 6.16807324 -0.00696182 7.96337891 0.00976562 C10.70955793 0.03117833 13.45312097 0.00996129 16.19921875 -0.015625 C17.94531827 -0.0129817 19.69141616 -0.00785667 21.4375 0 C22.25738403 -0.00809692 23.07726807 -0.01619385 23.92199707 -0.02453613 C27.46130279 0.03360098 29.64650444 0.19329439 32.73217773 2.015625 C34.93319683 5.74025972 34.81090986 9.0553365 34.78515625 13.3125 C34.79445412 14.5882489 34.79445412 14.5882489 34.80393982 15.88977051 C34.81103304 17.68512834 34.80787259 19.48055202 34.79516602 21.27587891 C34.78129475 24.02238947 34.81538047 26.76549569 34.85351562 29.51171875 C34.85446681 31.25781333 34.85260803 33.00391218 34.84765625 34.75 C34.86091446 35.56988403 34.87417267 36.38976807 34.88783264 37.23449707 C34.82437649 41.12089958 34.69023321 42.94282477 32.20483398 46.04467773 C28.37653404 47.95053321 24.99998968 48.12470544 20.8125 48.09765625 C19.60901917 48.10695412 19.60901917 48.10695412 18.38122559 48.11643982 C16.69019785 48.12352243 14.99910016 48.12039116 13.30810547 48.10766602 C10.72623051 48.0937902 8.1479759 48.12789948 5.56640625 48.16601562 C3.91926995 48.16696684 2.27212913 48.16510789 0.625 48.16015625 C-0.14283813 48.17341446 -0.91067627 48.18667267 -1.70178223 48.20033264 C-5.4740139 48.13505451 -7.61326621 47.64365122 -10.76733398 45.53320312 C-13.46076247 41.51836536 -13.48931374 38.60475948 -13.41015625 33.87109375 C-13.41256821 33.04420547 -13.41498016 32.2173172 -13.41746521 31.3653717 C-13.41648855 29.6230081 -13.40313811 27.88061277 -13.37817383 26.13842773 C-13.34380963 23.47337474 -13.35753539 20.81162959 -13.37695312 18.14648438 C-13.37005569 16.45050674 -13.36038423 14.75453765 -13.34765625 13.05859375 C-13.35261612 12.26372055 -13.35757599 11.46884735 -13.36268616 10.64988708 C-13.29153996 7.30583484 -13.01768169 4.92882334 -11.29467773 2.03149414 C-7.5705525 -0.19140528 -4.2650105 -0.04211994 0 0 Z " fill="#295E77" transform="translate(48.78125,168.46875)"/>
<path d="M0 0 C0.85049927 -0.00619858 1.70099854 -0.01239716 2.57727051 -0.01878357 C4.37262834 -0.02587679 6.16805202 -0.02271634 7.96337891 -0.01000977 C10.70988947 0.0038615 13.45299569 -0.03022422 16.19921875 -0.06835938 C17.94531333 -0.06931056 19.69141218 -0.06745178 21.4375 -0.0625 C22.25738403 -0.07575821 23.07726807 -0.08901642 23.92199707 -0.10267639 C27.81912689 -0.03904509 29.63109257 0.09316908 32.73657227 2.59399414 C34.61609864 6.36326339 34.77689867 9.63330348 34.71484375 13.75390625 C34.71629898 14.53403076 34.71775421 15.31415527 34.71925354 16.11791992 C34.71759877 17.76191963 34.70608469 19.40593551 34.68530273 21.04980469 C34.65633994 23.55861569 34.66470301 26.06531225 34.67773438 28.57421875 C34.67149638 30.17579146 34.66310496 31.77735754 34.65234375 33.37890625 C34.65527939 34.12487061 34.65821503 34.87083496 34.66123962 35.6394043 C34.58078792 40.10611865 33.98430101 43.01703597 31.21875 46.56640625 C28.03960283 48.15597984 24.59890618 47.77174347 21.10546875 47.8046875 C19.89562065 47.81679512 19.89562065 47.81679512 18.66133118 47.82914734 C16.95238393 47.84298768 15.24340904 47.85371007 13.53442383 47.86157227 C10.9267097 47.87877131 8.32026813 47.92265419 5.71289062 47.96679688 C4.05209265 47.97692522 2.3912839 47.98544088 0.73046875 47.9921875 C-0.4354052 48.01844963 -0.4354052 48.01844963 -1.62483215 48.04524231 C-5.13108462 48.03126589 -7.61828821 47.64687678 -10.77392578 46.08862305 C-13.69978554 42.41225998 -13.48419075 39.36342977 -13.41015625 34.78515625 C-13.41256821 33.93465698 -13.41498016 33.08415771 -13.41746521 32.20788574 C-13.41648716 30.41246877 -13.40310331 28.6170215 -13.37817383 26.82177734 C-13.34386304 24.07545412 -13.35751517 21.33234882 -13.37695312 18.5859375 C-13.37005448 16.83983007 -13.36038193 15.09373094 -13.34765625 13.34765625 C-13.35261612 12.52777222 -13.35757599 11.70788818 -13.36268616 10.86315918 C-13.2897316 7.32700872 -13.11720232 5.13441891 -11.29467773 2.05297852 C-7.57163688 -0.14902204 -4.25617267 -0.02574762 0 0 Z " fill="#1F485B" transform="translate(185.78125,168.43359375)"/>
<path d="M0 0 C3.25138544 -0.13497449 6.4971766 -0.23409172 9.75 -0.3125 C10.67039063 -0.35439453 11.59078125 -0.39628906 12.5390625 -0.43945312 C13.87324219 -0.46362305 13.87324219 -0.46362305 15.234375 -0.48828125 C16.45979004 -0.52755737 16.45979004 -0.52755737 17.70996094 -0.56762695 C20 0 20 0 22.2668457 2.01879883 C24.45699754 5.78608211 24.55990302 8.95040447 24.49609375 13.1875 C24.49754898 13.96762451 24.49900421 14.74774902 24.50050354 15.55151367 C24.49884877 17.19551338 24.48733469 18.83952926 24.46655273 20.48339844 C24.43758994 22.99220944 24.44595301 25.498906 24.45898438 28.0078125 C24.45274638 29.60938521 24.44435496 31.21095129 24.43359375 32.8125 C24.43652939 33.55846436 24.43946503 34.30442871 24.44248962 35.07299805 C24.36286841 39.4936031 23.97272051 42.62528475 21 46 C18.73168945 46.56762695 18.73168945 46.56762695 16.11328125 46.48828125 C15.17548828 46.47216797 14.23769531 46.45605469 13.27148438 46.43945312 C11.80678711 46.37661133 11.80678711 46.37661133 10.3125 46.3125 C9.32443359 46.28994141 8.33636719 46.26738281 7.31835938 46.24414062 C4.87826093 46.18520105 2.43894039 46.09551986 0 46 C0 41.05 0 36.1 0 31 C2.64 31 5.28 31 8 31 C8 25.72 8 20.44 8 15 C5.36 15 2.72 15 0 15 C0 10.05 0 5.1 0 0 Z " fill="#20495C" transform="translate(128,169)"/>
<path d="M0 0 C3.60558798 0.70544113 4.75417062 1.57762902 6.875 4.5625 C8.0625 7.3125 8.0625 7.3125 7.875 10.5625 C6.65942383 12.28051758 6.65942383 12.28051758 4.95703125 14.14453125 C4.31805908 14.84626465 3.67908691 15.54799805 3.02075195 16.27099609 C2.31265381 17.02719238 1.60455566 17.78338867 0.875 18.5625 C0.13403076 19.35865723 -0.60693848 20.15481445 -1.37036133 20.97509766 C-3.76188306 23.51057313 -6.18854031 26.00772884 -8.625 28.5 C-9.44097656 29.36173828 -10.25695312 30.22347656 -11.09765625 31.11132812 C-17.86508003 38.00367225 -17.86508003 38.00367225 -21.97265625 38.8125 C-25.50269246 38.53254669 -26.59302954 38.09447046 -29.0625 35.625 C-29.72121094 34.9753125 -30.37992188 34.325625 -31.05859375 33.65625 C-31.74050781 32.9653125 -32.42242187 32.274375 -33.125 31.5625 C-33.87910156 30.9128125 -34.63320312 30.263125 -35.41015625 29.59375 C-40.77407787 24.82581967 -40.77407787 24.82581967 -41.73046875 21.3828125 C-41.84123578 18.50286981 -41.41547442 16.14344885 -40.125 13.5625 C-36.81616855 11.90808427 -33.65960834 11.69058523 -30.125 12.5625 C-28.31811308 14.0195341 -26.9625422 15.51145262 -25.546875 17.34765625 C-24.20390754 18.7540281 -24.20390754 18.7540281 -22.2890625 18.60546875 C-19.06365204 17.05098393 -17.04026791 14.48447923 -14.75 11.8125 C-5.33395783 0.96011241 -5.33395783 0.96011241 0 0 Z " fill="#05B54E" transform="translate(145.125,108.4375)"/>
<path d="M0 0 C0.66 -0.02191406 1.32 -0.04382812 2 -0.06640625 C5.22773138 0.94856397 6.21448204 2.73328237 8 5.5625 C8.51892434 8.4641566 8.42355761 11.2847234 8.3125 14.22265625 C8.29413086 15.04954453 8.27576172 15.8764328 8.25683594 16.7283783 C8.21274682 18.4709781 8.15833253 20.21334355 8.09423828 21.95532227 C8.00019693 24.61942109 7.94904738 27.28196339 7.90234375 29.94726562 C7.85413007 31.6433041 7.80343282 33.33927418 7.75 35.03515625 C7.73622314 35.83002945 7.72244629 36.62490265 7.70825195 37.44386292 C7.55215797 41.0047087 7.29438176 43.16786953 5.13671875 46.06030273 C3 47.5625 3 47.5625 0.0625 48.125 C-4.13383404 47.35424477 -5.38611422 45.90915443 -8 42.5625 C-8.70738616 39.66773934 -8.67854874 36.87099466 -8.62890625 33.90234375 C-8.63131821 33.07545547 -8.63373016 32.2485672 -8.63621521 31.3966217 C-8.63523855 29.6542581 -8.62188811 27.91186277 -8.59692383 26.16967773 C-8.56255963 23.50462474 -8.57628539 20.84287959 -8.59570312 18.17773438 C-8.58880569 16.48175674 -8.57913423 14.78578765 -8.56640625 13.08984375 C-8.57136612 12.29497055 -8.57632599 11.50009735 -8.58143616 10.68113708 C-8.50448423 7.0642007 -8.3188182 4.97930641 -6.08959961 2.06494141 C-3.83781428 0.44588697 -2.74497808 -0.00536129 0 0 Z " fill="#C6DEE3" transform="translate(104,-0.5625)"/>
<path d="M0 0 C0.99 0.03287109 0.99 0.03287109 2 0.06640625 C2.66 0.06511719 3.32 0.06382813 4 0.0625 C7.01311864 0.91582461 8.09280206 2.13553437 10 4.62890625 C10.40993091 7.59748146 10.58492644 10.18818675 10.56640625 13.15625 C10.57570412 14.39514732 10.57570412 14.39514732 10.58518982 15.65907288 C10.59228289 17.40315575 10.58912283 19.14730641 10.57641602 20.89135742 C10.56256196 23.55449626 10.59660898 26.21411171 10.63476562 28.87695312 C10.635717 30.57421961 10.633857 32.27149047 10.62890625 33.96875 C10.64216446 34.76159897 10.65542267 35.55444794 10.66908264 36.37132263 C10.59829773 40.59307826 10.34308942 42.1896362 7.65209961 45.63500977 C5 47.62890625 5 47.62890625 1.9375 48.19140625 C-1.78611423 47.47837374 -2.73767115 46.66164818 -5 43.62890625 C-5.46651318 40.67151922 -5.69859004 38.06772548 -5.75 35.1015625 C-5.77602295 34.27563095 -5.8020459 33.4496994 -5.82885742 32.59873962 C-5.8784302 30.85489158 -5.91816567 29.11073982 -5.94873047 27.36645508 C-5.99978069 24.70284914 -6.09345174 22.0431055 -6.19140625 19.38085938 C-6.23434678 17.68365697 -6.27479426 15.98638927 -6.3125 14.2890625 C-6.3424707 13.49621353 -6.37244141 12.70336456 -6.40332031 11.88648987 C-6.44268959 7.91615724 -6.28214965 6.07598255 -4.10546875 2.62695312 C-2 0.62890625 -2 0.62890625 0 0 Z " fill="#8FB5C1" transform="translate(150,-0.62890625)"/>
<path d="M0 0 C0.99 0.03287109 0.99 0.03287109 2 0.06640625 C2.66 0.06511719 3.32 0.06382813 4 0.0625 C7.01311864 0.91582461 8.09280206 2.13553437 10 4.62890625 C10.40993091 7.59748146 10.58492644 10.18818675 10.56640625 13.15625 C10.57570412 14.39514732 10.57570412 14.39514732 10.58518982 15.65907288 C10.59228289 17.40315575 10.58912283 19.14730641 10.57641602 20.89135742 C10.56256196 23.55449626 10.59660898 26.21411171 10.63476562 28.87695312 C10.635717 30.57421961 10.633857 32.27149047 10.62890625 33.96875 C10.64216446 34.76159897 10.65542267 35.55444794 10.66908264 36.37132263 C10.59829773 40.59307826 10.34308942 42.1896362 7.65209961 45.63500977 C5 47.62890625 5 47.62890625 1.9375 48.19140625 C-1.78611423 47.47837374 -2.73767115 46.66164818 -5 43.62890625 C-5.46651318 40.67151922 -5.69859004 38.06772548 -5.75 35.1015625 C-5.77602295 34.27563095 -5.8020459 33.4496994 -5.82885742 32.59873962 C-5.8784302 30.85489158 -5.91816567 29.11073982 -5.94873047 27.36645508 C-5.99978069 24.70284914 -6.09345174 22.0431055 -6.19140625 19.38085938 C-6.23434678 17.68365697 -6.27479426 15.98638927 -6.3125 14.2890625 C-6.3424707 13.49621353 -6.37244141 12.70336456 -6.40332031 11.88648987 C-6.44268959 7.91615724 -6.28214965 6.07598255 -4.10546875 2.62695312 C-2 0.62890625 -2 0.62890625 0 0 Z " fill="#8EB7C2" transform="translate(198,-0.62890625)"/>
<path d="M0 0 C0.66 -0.02191406 1.32 -0.04382812 2 -0.06640625 C5.22773138 0.94856397 6.21448204 2.73328237 8 5.5625 C8.51892434 8.4641566 8.42355761 11.2847234 8.3125 14.22265625 C8.29413086 15.04954453 8.27576172 15.8764328 8.25683594 16.7283783 C8.21274682 18.4709781 8.15833253 20.21334355 8.09423828 21.95532227 C8.00019693 24.61942109 7.94904738 27.28196339 7.90234375 29.94726562 C7.85413007 31.6433041 7.80343282 33.33927418 7.75 35.03515625 C7.73622314 35.83002945 7.72244629 36.62490265 7.70825195 37.44386292 C7.55215797 41.0047087 7.29438176 43.16786953 5.13671875 46.06030273 C3 47.5625 3 47.5625 0.0625 48.125 C-4.13383404 47.35424477 -5.38611422 45.90915443 -8 42.5625 C-8.70738616 39.66773934 -8.67854874 36.87099466 -8.62890625 33.90234375 C-8.63131821 33.07545547 -8.63373016 32.2485672 -8.63621521 31.3966217 C-8.63523855 29.6542581 -8.62188811 27.91186277 -8.59692383 26.16967773 C-8.56255963 23.50462474 -8.57628539 20.84287959 -8.59570312 18.17773438 C-8.58880569 16.48175674 -8.57913423 14.78578765 -8.56640625 13.08984375 C-8.57136612 12.29497055 -8.57632599 11.50009735 -8.58143616 10.68113708 C-8.50448423 7.0642007 -8.3188182 4.97930641 -6.08959961 2.06494141 C-3.83781428 0.44588697 -2.74497808 -0.00536129 0 0 Z " fill="#C5DFE4" transform="translate(56,-0.5625)"/>
<path d="M0 0 C1.80688692 1.4570341 3.1624578 2.94895262 4.578125 4.78515625 C5.04734375 5.18605469 5.5165625 5.58695312 6 6 C9.03539985 5.70721537 10.39582395 4.73611737 13 3 C13.0868329 6.458176 13.14033282 9.91607344 13.1875 13.375 C13.21263672 14.35984375 13.23777344 15.3446875 13.26367188 16.359375 C13.27333984 17.30039063 13.28300781 18.24140625 13.29296875 19.2109375 C13.3086792 20.08024902 13.32438965 20.94956055 13.34057617 21.84521484 C13.22818604 22.55629395 13.1157959 23.26737305 13 24 C10 26 10 26 6.77734375 26.03515625 C1.7216207 24.64966855 -0.83563582 22.12321711 -4.4375 18.4375 C-5.07365234 17.84130859 -5.70980469 17.24511719 -6.36523438 16.63085938 C-9.54048254 13.44879005 -11.40699159 11.2723169 -11.47265625 6.66015625 C-11 3 -11 3 -10 1 C-6.69116855 -0.65441573 -3.53460834 -0.87191477 0 0 Z " fill="#56E362" transform="translate(115,121)"/>
<path d="M0 0 C5.61 0 11.22 0 17 0 C17 5.61 17 11.22 17 17 C11.39 17 5.78 17 0 17 C0 11.39 0 5.78 0 0 Z " fill="#C1DDE3" transform="translate(188,184)"/>
<path d="M0 0 C5.61 0 11.22 0 17 0 C17 5.61 17 11.22 17 17 C11.39 17 5.78 17 0 17 C0 11.39 0 5.78 0 0 Z " fill="#E3ECEC" transform="translate(51,184)"/>
<path d="M0 0 C5.61 0 11.22 0 17 0 C17 5.28 17 10.56 17 16 C11.39 16 5.78 16 0 16 C0 10.72 0 5.44 0 0 Z " fill="#C3DFE4" transform="translate(188,120)"/>
<path d="M0 0 C5.61 0 11.22 0 17 0 C17 5.28 17 10.56 17 16 C11.39 16 5.78 16 0 16 C0 10.72 0 5.44 0 0 Z " fill="#E5EEED" transform="translate(51,120)"/>
<path d="M0 0 C5.28 0 10.56 0 16 0 C16 5.28 16 10.56 16 16 C10.72 16.33 5.44 16.66 0 17 C0 11.39 0 5.78 0 0 Z " fill="#E4EEED" transform="translate(120,184)"/>
<path d="M0 0 C2.64 0 5.28 0 8 0 C8 5.28 8 10.56 8 16 C5.36 16 2.72 16 0 16 C0 10.72 0 5.44 0 0 Z " fill="#C5E1E6" transform="translate(128,184)"/>
</svg>
